<svg xmlns="http://www.w3.org/2000/svg" id="Layer_1" data-name="Layer 1" viewBox="0 0 1111.89 364.84"><defs><style>      .cls-1 {        fill: #5d87c5;      }      .cls-1, .cls-2 {        stroke-width: 0px;      }      .cls-2 {        fill: #fff;      }    </style></defs><path class="cls-2" d="m114.8,152.71l115.22-1.04-12.31,67.16-115.22,1.04-27,144.29-75.49.68L47.81,105.14C60.11,37.48,105.01,4.78,161.63,4.27c61.58-.56,107.05,29.33,107.6,89.92.06,6.95-.37,13.41-1.31,19.88l-74.99.68c.46-3.48.93-6.96.89-10.94-.2-21.85-14.68-30.16-34.54-29.98-17.88.16-31.7,10.22-36.91,37.59l-7.57,41.29Z"></path><polygon class="cls-2" points="390.65 8.65 325.31 361.89 250.81 362.57 316.15 9.33 390.65 8.65"></polygon><polygon class="cls-2" points="435.92 117.71 510.42 117.71 462.74 363.07 388.24 363.07 435.92 117.71"></polygon><path class="cls-1" d="m438.41,51.65c0-28.81,23.34-51.65,52.65-51.65,26.32,0,44.2,17.88,44.2,43.21,0,29.3-24.34,52.15-52.65,52.15-25.83,0-44.2-18.38-44.2-43.71Z"></path><path class="cls-2" d="m674.81,111.26c-50.77,0-90.27,21.67-112.54,65.25-6.92,13.54-12.17,29.21-15.59,47l-26.83,139.56h75.5l8.8-46.07,16.54-86.53c2.72-13.86,7-24.5,12.76-32.32,8.84-12.06,21.23-17.36,36.89-17.36,23.85,0,41.73,11.93,41.73,40.73,0,3.98-.5,9.94-1.99,17.88l-23.85,123.67h76l8.86-46.07,13.49-70.14c2.49-12.91,3.48-24.34,3.48-33.79,0-66.55-48.67-101.81-113.25-101.81Z"></path><path class="cls-2" d="m988.71,237.9l78.48,125.16h-88.91l-63.57-112.74-21.85,112.74h-74.5L886.9,10.43h74.5l-39.73,203.64,91.39-96.35h98.84l-123.17,120.19Z"></path></svg>